<svg xmlns="http://www.w3.org/2000/svg" viewBox="-0.49 -0.43 35.85 35.85" width="40" height="40" role="img" aria-label="Wolfram One">
  
 <polygon xmlns="http://www.w3.org/2000/svg" points="26.86 17.5 30.7 13.27 25.06 12.06 25.64 6.42 20.35 8.7 17.44 3.81 14.53 8.7 9.24 6.42 9.82 12.06 4.18 13.27 8.02 17.5 4.18 21.73 9.82 22.94 9.24 28.57 14.53 26.3 14.87 26.88 14.87 21.14 13.55 22.32 12.41 21.04 16.58 17.32 16.58 29.75 17.44 31.19 18.29 29.75 18.29 13.5 11.27 19.77 10.13 18.49 20.01 9.68 20.01 26.88 20.35 26.3 25.63 28.58 25.06 22.94 30.7 21.73 26.86 17.5" fill="#D1C4FF"/>
</svg>
